<svg xmlns="http://www.w3.org/2000/svg" xmlns:xlink="http://www.w3.org/1999/xlink" viewBox="0 0 1000 150" width="100%">
  
  <defs>
    <g id="charles-base" transform="translate(0,76) scale(0.1,-0.1)" stroke="none">
      <path d="M131 648 c-8 -39 -8 -69 0 -113 7 -33 11 -73 11 -90 -5 -130 -3 -175 9 -196 7 -13 20 -44 29 -68 22 -64 57 -86 135 -86 88 0 111 19 147 121 16 43 28 97 28 119 -1 114 -1 158 2 247 2 69 -1 101 -10 110 -16 16 -32 -4 -32 -42 0 -14 -9 -43 -19 -66 l-19 -41 -57 10 c-39 8 -69 7 -96 0 -36 -9 -41 -8 -54 11 -9 11 -21 47 -27 78 -7 33 -17 58 -24 58 -7 0 -17 -23 -23 -52z m89 -120 c14 1 45 5 70 8 25 3 63 1 85 -5 48 -13 58 -6 82 62 l18 52 3 -47 c2 -26 -2 -66 -9 -90 -14 -49 -13 -91 3 -131 14 -35 8 -39 -68 -56 -30 -7 -54 -14 -54 -16 0 -40 40 -45 87 -9 27 20 33 22 33 9 0 -10 -7 -31 -15 -48 -8 -18 -20 -50 -27 -72 -10 -29 -22 -45 -48 -58 -46 -24 -123 -18 -152 11 -21 20 -55 104 -65 157 l-6 30 24 -21 c40 -36 68 -47 85 -33 27 22 15 37 -40 50 -76 17 -83 22 -68 54 16 35 15 70 -4 151 -8 37 -12 79 -9 93 6 23 9 20 29 -34 19 -53 24 -60 46 -57z"/>
      <path d="M200 239 c0 -19 65 -77 94 -85 37 -9 80 12 112 53 32 42 27 50 -18 27 -42 -22 -105 -22 -148 -1 -39 20 -40 20 -40 6z m123 -42 c18 2 27 -3 27 -12 0 -26 -53 -22 -90 7 l-25 20 30 -8 c17 -5 42 -8 58 -7z m57 3 c0 -5 -4 -10 -10 -10 -5 0 -10 5 -10 10 0 6 5 10 10 10 6 0 10 -4 10 -10z"/>
    </g>
  </defs>

  <g>
    <animateTransform attributeName="transform" type="translate" values="750 25" dur="20s" repeatCount="indefinite" />
    <animate attributeName="opacity" values="0; 0; 1; 1; 0" keyTimes="0; 0.184; 0.185; 0.99; 1" dur="20s" repeatCount="indefinite" />
    <g>
      <animateTransform attributeName="transform" type="rotate" values="-25 50 100; 25 50 100; -25 50 100" dur="3s" repeatCount="indefinite" />
      <use href="#charles-base" fill="#f00000" />
    </g>
  </g>

  <g>
    <animateTransform attributeName="transform" type="translate" values="450 25" dur="20s" repeatCount="indefinite" />
    <animate attributeName="opacity" values="0; 0; 1; 1; 0" keyTimes="0; 0.322; 0.323; 0.99; 1" dur="20s" repeatCount="indefinite" />
    <g>
      <animateTransform attributeName="transform" type="rotate" values="-25 50 100; 25 50 100; -25 50 100" dur="3s" repeatCount="indefinite" />
      <use href="#charles-base" fill="#ffa500" />
    </g>
  </g>

  <g>
    <animateTransform attributeName="transform" type="translate" values="150 25" dur="20s" repeatCount="indefinite" />
    <animate attributeName="opacity" values="0; 0; 1; 1; 0" keyTimes="0; 0.460; 0.461; 0.99; 1" dur="20s" repeatCount="indefinite" />
    <g>
      <animateTransform attributeName="transform" type="rotate" values="-25 50 100; 25 50 100; -25 50 100" dur="3s" repeatCount="indefinite" />
      <use href="#charles-base" fill="#dacc10" />
    </g>
  </g>

  <g>
    <animateTransform attributeName="transform" type="translate" values="1150 25; -150 25; -150 25; 1150 25" keyTimes="0; 0.60; 0.99; 1" dur="20s" repeatCount="indefinite" />
    <g>
      <animateTransform attributeName="transform" type="rotate" values="-25 50 100; 25 50 100; -25 50 100" dur="3s" repeatCount="indefinite" />
      <use href="#charles-base" fill="#000000" />
    </g>
  </g>

</svg>
