<?xml version="1.0" standalone="no"?><svg xmlns="http://www.w3.org/2000/svg" viewBox="0 0 1440 320"><path fill="#000b76" fill-opacity="1" d="M0,256L14.1,224C28.2,192,56,128,85,117.3C112.9,107,141,149,169,154.7C197.6,160,226,128,254,101.3C282.4,75,311,53,339,85.3C367.1,117,395,203,424,240C451.8,277,480,267,508,261.3C536.5,256,565,256,593,218.7C621.2,181,649,107,678,85.3C705.9,64,734,96,762,106.7C790.6,117,819,107,847,117.3C875.3,128,904,160,932,181.3C960,203,988,213,1016,208C1044.7,203,1073,181,1101,154.7C1129.4,128,1158,96,1186,74.7C1214.1,53,1242,43,1271,69.3C1298.8,96,1327,160,1355,181.3C1383.5,203,1412,181,1426,170.7L1440,160L1440,320L1425.9,320C1411.8,320,1384,320,1355,320C1327.1,320,1299,320,1271,320C1242.4,320,1214,320,1186,320C1157.6,320,1129,320,1101,320C1072.9,320,1045,320,1016,320C988.2,320,960,320,932,320C903.5,320,875,320,847,320C818.8,320,791,320,762,320C734.1,320,706,320,678,320C649.4,320,621,320,593,320C564.7,320,536,320,508,320C480,320,452,320,424,320C395.3,320,367,320,339,320C310.6,320,282,320,254,320C225.9,320,198,320,169,320C141.2,320,113,320,85,320C56.5,320,28,320,14,320L0,320Z"></path></svg>