<?xml version="1.0" standalone="no"?><svg xmlns="http://www.w3.org/2000/svg" viewBox="0 0 1440 320"><path fill="#FF0000" fill-opacity="1" d="M0,32L7.3,48C14.5,64,29,96,44,144C58.2,192,73,256,87,234.7C101.8,213,116,107,131,101.3C145.5,96,160,192,175,218.7C189.1,245,204,203,218,186.7C232.7,171,247,181,262,202.7C276.4,224,291,256,305,272C320,288,335,288,349,288C363.6,288,378,288,393,240C407.3,192,422,96,436,80C450.9,64,465,128,480,149.3C494.5,171,509,149,524,117.3C538.2,85,553,43,567,53.3C581.8,64,596,128,611,144C625.5,160,640,128,655,101.3C669.1,75,684,53,698,69.3C712.7,85,727,139,742,176C756.4,213,771,235,785,234.7C800,235,815,213,829,218.7C843.6,224,858,256,873,240C887.3,224,902,160,916,154.7C930.9,149,945,203,960,197.3C974.5,192,989,128,1004,122.7C1018.2,117,1033,171,1047,176C1061.8,181,1076,139,1091,122.7C1105.5,107,1120,117,1135,154.7C1149.1,192,1164,256,1178,240C1192.7,224,1207,128,1222,106.7C1236.4,85,1251,139,1265,154.7C1280,171,1295,149,1309,144C1323.6,139,1338,149,1353,176C1367.3,203,1382,245,1396,266.7C1410.9,288,1425,288,1433,288L1440,288L1440,320L1432.7,320C1425.5,320,1411,320,1396,320C1381.8,320,1367,320,1353,320C1338.2,320,1324,320,1309,320C1294.5,320,1280,320,1265,320C1250.9,320,1236,320,1222,320C1207.3,320,1193,320,1178,320C1163.6,320,1149,320,1135,320C1120,320,1105,320,1091,320C1076.4,320,1062,320,1047,320C1032.7,320,1018,320,1004,320C989.1,320,975,320,960,320C945.5,320,931,320,916,320C901.8,320,887,320,873,320C858.2,320,844,320,829,320C814.5,320,800,320,785,320C770.9,320,756,320,742,320C727.3,320,713,320,698,320C683.6,320,669,320,655,320C640,320,625,320,611,320C596.4,320,582,320,567,320C552.7,320,538,320,524,320C509.1,320,495,320,480,320C465.5,320,451,320,436,320C421.8,320,407,320,393,320C378.2,320,364,320,349,320C334.5,320,320,320,305,320C290.9,320,276,320,262,320C247.3,320,233,320,218,320C203.6,320,189,320,175,320C160,320,145,320,131,320C116.4,320,102,320,87,320C72.7,320,58,320,44,320C29.1,320,15,320,7,320L0,320Z"></path></svg>