<?xml version="1.0" standalone="no"?><svg xmlns="http://www.w3.org/2000/svg" viewBox="0 0 1440 320"><path fill="#000b76" fill-opacity="1" d="M0,128L14.1,149.3C28.2,171,56,213,85,240C112.9,267,141,277,169,240C197.6,203,226,117,254,101.3C282.4,85,311,139,339,154.7C367.1,171,395,149,424,144C451.8,139,480,149,508,138.7C536.5,128,565,96,593,112C621.2,128,649,192,678,213.3C705.9,235,734,213,762,197.3C790.6,181,819,171,847,154.7C875.3,139,904,117,932,122.7C960,128,988,160,1016,160C1044.7,160,1073,128,1101,128C1129.4,128,1158,160,1186,170.7C1214.1,181,1242,171,1271,165.3C1298.8,160,1327,160,1355,144C1383.5,128,1412,96,1426,80L1440,64L1440,0L1425.9,0C1411.8,0,1384,0,1355,0C1327.1,0,1299,0,1271,0C1242.4,0,1214,0,1186,0C1157.6,0,1129,0,1101,0C1072.9,0,1045,0,1016,0C988.2,0,960,0,932,0C903.5,0,875,0,847,0C818.8,0,791,0,762,0C734.1,0,706,0,678,0C649.4,0,621,0,593,0C564.7,0,536,0,508,0C480,0,452,0,424,0C395.3,0,367,0,339,0C310.6,0,282,0,254,0C225.9,0,198,0,169,0C141.2,0,113,0,85,0C56.5,0,28,0,14,0L0,0Z"></path></svg>