<?xml version="1.0" standalone="no"?><svg xmlns="http://www.w3.org/2000/svg" viewBox="0 0 1440 320"><path fill="#FF0000" fill-opacity="1" d="M0,32L7.3,48C14.5,64,29,96,44,144C58.2,192,73,256,87,234.7C101.8,213,116,107,131,101.3C145.5,96,160,192,175,218.7C189.1,245,204,203,218,186.7C232.7,171,247,181,262,202.7C276.4,224,291,256,305,272C320,288,335,288,349,288C363.6,288,378,288,393,240C407.3,192,422,96,436,80C450.9,64,465,128,480,149.3C494.5,171,509,149,524,117.3C538.2,85,553,43,567,53.3C581.8,64,596,128,611,144C625.5,160,640,128,655,101.3C669.1,75,684,53,698,69.3C712.7,85,727,139,742,176C756.4,213,771,235,785,234.7C800,235,815,213,829,218.7C843.6,224,858,256,873,240C887.3,224,902,160,916,154.7C930.9,149,945,203,960,197.3C974.5,192,989,128,1004,122.7C1018.2,117,1033,171,1047,176C1061.8,181,1076,139,1091,122.7C1105.5,107,1120,117,1135,154.7C1149.1,192,1164,256,1178,240C1192.7,224,1207,128,1222,106.7C1236.4,85,1251,139,1265,154.7C1280,171,1295,149,1309,144C1323.6,139,1338,149,1353,176C1367.3,203,1382,245,1396,266.7C1410.9,288,1425,288,1433,288L1440,288L1440,0L1432.7,0C1425.5,0,1411,0,1396,0C1381.8,0,1367,0,1353,0C1338.2,0,1324,0,1309,0C1294.5,0,1280,0,1265,0C1250.9,0,1236,0,1222,0C1207.3,0,1193,0,1178,0C1163.6,0,1149,0,1135,0C1120,0,1105,0,1091,0C1076.4,0,1062,0,1047,0C1032.7,0,1018,0,1004,0C989.1,0,975,0,960,0C945.5,0,931,0,916,0C901.8,0,887,0,873,0C858.2,0,844,0,829,0C814.5,0,800,0,785,0C770.9,0,756,0,742,0C727.3,0,713,0,698,0C683.6,0,669,0,655,0C640,0,625,0,611,0C596.4,0,582,0,567,0C552.7,0,538,0,524,0C509.1,0,495,0,480,0C465.5,0,451,0,436,0C421.8,0,407,0,393,0C378.2,0,364,0,349,0C334.5,0,320,0,305,0C290.9,0,276,0,262,0C247.3,0,233,0,218,0C203.6,0,189,0,175,0C160,0,145,0,131,0C116.4,0,102,0,87,0C72.7,0,58,0,44,0C29.1,0,15,0,7,0L0,0Z"></path></svg>